<!-- Sprite SVG des icônes utilisées dans le portfolio -->
<svg xmlns="http://www.w3.org/2000/svg" style="display: none;">
  
  <!-- Icône Code -->
  <symbol id="icone-code" viewBox="0 0 24 24" fill="none" stroke="currentColor" stroke-width="2">
    <polyline points="16 18 22 12 16 6"/>
    <polyline points="8 6 2 12 8 18"/>
  </symbol>
  
  <!-- Icône HTML5 -->
  <symbol id="icone-html" viewBox="0 0 24 24" fill="none" stroke="currentColor" stroke-width="2">
    <path d="M12 2L2 7v10c0 5.55 3.84 9.95 9 11 5.16-1.05 9-5.45 9-11V7l-10-5z"/>
    <path d="M8 12l2 2 4-4"/>
  </symbol>
  
  <!-- Icône CSS3 -->
  <symbol id="icone-css" viewBox="0 0 24 24" fill="none" stroke="currentColor" stroke-width="2">
    <rect x="3" y="3" width="18" height="18" rx="2" ry="2"/>
    <circle cx="9" cy="9" r="2"/>
    <path d="M21 15.5c-.6-1.2-1.7-2-3-2s-2.4.8-3 2"/>
  </symbol>
  
  <!-- Icône JavaScript -->
  <symbol id="icone-javascript" viewBox="0 0 24 24" fill="none" stroke="currentColor" stroke-width="2">
    <polyline points="16 18 22 12 16 6"/>
    <polyline points="8 6 2 12 8 18"/>
  </symbol>
  
  <!-- Icône Responsive -->
  <symbol id="icone-responsive" viewBox="0 0 24 24" fill="none" stroke="currentColor" stroke-width="2">
    <rect x="2" y="3" width="20" height="14" rx="2" ry="2"/>
    <line x1="8" y1="21" x2="16" y2="21"/>
    <line x1="12" y1="17" x2="12" y2="21"/>
  </symbol>
  
  <!-- Icône Git -->
  <symbol id="icone-git" viewBox="0 0 24 24" fill="none" stroke="currentColor" stroke-width="2">
    <circle cx="12" cy="12" r="3"/>
    <path d="M9 9l1.5 1.5L19 2"/>
  </symbol>
  
  <!-- Icône API -->
  <symbol id="icone-api" viewBox="0 0 24 24" fill="none" stroke="currentColor" stroke-width="2">
    <rect x="3" y="11" width="18" height="10" rx="2" ry="2"/>
    <circle cx="12" cy="16" r="1"/>
    <path d="M7 11V7a5 5 0 0 1 10 0v4"/>
  </symbol>
  
  <!-- Icône Database -->
  <symbol id="icone-database" viewBox="0 0 24 24" fill="none" stroke="currentColor" stroke-width="2">
    <ellipse cx="12" cy="5" rx="9" ry="3"/>
    <path d="M21 12c0 1.66-4 3-9 3s-9-1.34-9-3"/>
    <path d="M3 5v14c0 1.66 4 3 9 3s9-1.34 9-3V5"/>
  </symbol>
  
  <!-- Icône Node.js -->
  <symbol id="icone-node" viewBox="0 0 24 24" fill="none" stroke="currentColor" stroke-width="2">
    <polygon points="12 2 22 8.5 22 15.5 12 22 2 15.5 2 8.5 12 2"/>
    <line x1="12" y1="22" x2="12" y2="15.5"/>
    <polyline points="22 8.5 12 15.5 2 8.5"/>
  </symbol>
  
  <!-- Icône Email -->
  <symbol id="icone-email" viewBox="0 0 24 24" fill="none" stroke="currentColor" stroke-width="2">
    <path d="M4 4h16c1.1 0 2 .9 2 2v12c0 1.1-.9 2-2 2H4c-1.1 0-2-.9-2-2V6c0-1.1.9-2 2-2z"/>
    <polyline points="22,6 12,13 2,6"/>
  </symbol>
  
  <!-- Icône Localisation -->
  <symbol id="icone-localisation" viewBox="0 0 24 24" fill="none" stroke="currentColor" stroke-width="2">
    <path d="M21 10c0 7-9 13-9 13s-9-6-9-13a9 9 0 0 1 18 0z"/>
    <circle cx="12" cy="10" r="3"/>
  </symbol>
  
  <!-- Icône Téléphone -->
  <symbol id="icone-telephone" viewBox="0 0 24 24" fill="none" stroke="currentColor" stroke-width="2">
    <path d="M22 16.92v3a2 2 0 0 1-2.18 2 19.79 19.79 0 0 1-8.63-3.07 19.5 19.5 0 0 1-6-6 19.79 19.79 0 0 1-3.07-8.67A2 2 0 0 1 4.11 2h3a2 2 0 0 1 2 1.72 12.84 12.84 0 0 0 .7 2.81 2 2 0 0 1-.45 2.11L8.09 9.91a16 16 0 0 0 6 6l1.27-1.27a2 2 0 0 1 2.11-.45 12.84 12.84 0 0 0 2.81.7A2 2 0 0 1 22 16.92z"/>
  </symbol>
  
  <!-- Icône LinkedIn -->
  <symbol id="icone-linkedin" viewBox="0 0 24 24" fill="currentColor">
    <path d="M20.447 20.452h-3.554v-5.569c0-1.328-.027-3.037-1.852-3.037-1.853 0-2.136 1.445-2.136 2.939v5.667H9.351V9h3.414v1.561h.046c.477-.9 1.637-1.85 3.37-1.85 3.601 0 4.267 2.37 4.267 5.455v6.286zM5.337 7.433c-1.144 0-2.063-.926-2.063-2.065 0-1.138.92-2.063 2.063-2.063 1.14 0 2.064.925 2.064 2.063 0 1.139-.925 2.065-2.064 2.065zm1.782 13.019H3.555V9h3.564v11.452zM22.225 0H1.771C.792 0 0 .774 0 1.729v20.542C0 23.227.792 24 1.771 24h20.451C23.2 24 24 23.227 24 22.271V1.729C24 .774 23.2 0 22.222 0h.003z"/>
  </symbol>
  
  <!-- Icône GitHub -->
  <symbol id="icone-github" viewBox="0 0 24 24" fill="currentColor">
    <path d="M12 0c-6.626 0-12 5.373-12 12 0 5.302 3.438 9.8 8.207 11.387.599.111.793-.261.793-.577v-2.234c-3.338.726-4.033-1.416-4.033-1.416-.546-1.387-1.333-1.756-1.333-1.756-1.089-.745.083-.729.083-.729 1.205.084 1.839 1.237 1.839 1.237 1.07 1.834 2.807 1.304 3.492.997.107-.775.418-1.305.762-1.604-2.665-.305-5.467-1.334-5.467-5.931 0-1.311.469-2.381 1.236-3.221-.124-.303-.535-1.524.117-3.176 0 0 1.008-.322 3.301 1.23.957-.266 1.983-.399 3.003-.404 1.02.005 2.047.138 3.006.404 2.291-1.552 3.297-1.23 3.297-1.23.653 1.653.242 2.874.118 3.176.77.84 1.235 1.911 1.235 3.221 0 4.609-2.807 5.624-5.479 5.921.43.372.823 1.102.823 2.222v3.293c0 .319.192.694.801.576 4.765-1.589 8.199-6.086 8.199-11.386 0-6.627-5.373-12-12-12z"/>
  </symbol>
  
  <!-- Icône Twitter -->
  <symbol id="icone-twitter" viewBox="0 0 24 24" fill="currentColor">
    <path d="M22.46 6c-.77.35-1.6.58-2.46.69.88-.53 1.56-1.37 1.88-2.38-.83.5-1.75.85-2.72 1.05C18.37 4.5 17.26 4 16 4c-2.35 0-4.27 1.92-4.27 4.29 0 .34.04.67.11.98C8.28 9.09 5.11 7.38 3 4.79c-.37.63-.58 1.37-.58 2.15 0 1.49.75 2.81 1.91 3.56-.71 0-1.37-.2-1.95-.5v.03c0 2.08 1.48 3.82 3.44 4.21a4.22 4.22 0 0 1-1.93.07 4.28 4.28 0 0 0 4 2.98 8.521 8.521 0 0 1-5.33 1.84c-.34 0-.68-.02-1.02-.06C3.44 20.29 5.7 21 8.12 21 16 21 20.33 14.46 20.33 8.79c0-.19 0-.37-.01-.56.84-.6 1.56-1.36 2.14-2.23z"/>
  </symbol>
  
  <!-- Icône Succès -->
  <symbol id="icone-succes" viewBox="0 0 24 24" fill="none" stroke="currentColor" stroke-width="2">
    <path d="M22 11.08V12a10 10 0 1 1-5.93-9.14"/>
    <polyline points="22,4 12,14.01 9,11.01"/>
  </symbol>
  
  <!-- Icône Menu -->
  <symbol id="icone-menu" viewBox="0 0 24 24" fill="none" stroke="currentColor" stroke-width="2">
    <line x1="3" y1="6" x2="21" y2="6"/>
    <line x1="3" y1="12" x2="21" y2="12"/>
    <line x1="3" y1="18" x2="21" y2="18"/>
  </symbol>
  
  <!-- Icône Fermer -->
  <symbol id="icone-fermer" viewBox="0 0 24 24" fill="none" stroke="currentColor" stroke-width="2">
    <line x1="18" y1="6" x2="6" y2="18"/>
    <line x1="6" y1="6" x2="18" y2="18"/>
  </symbol>
  
  <!-- Icône Flèche vers le haut -->
  <symbol id="icone-fleche-haut" viewBox="0 0 24 24" fill="none" stroke="currentColor" stroke-width="2">
    <line x1="12" y1="19" x2="12" y2="5"/>
    <polyline points="5,12 12,5 19,12"/>
  </symbol>
  
  <!-- Icône Externe -->
  <symbol id="icone-externe" viewBox="0 0 24 24" fill="none" stroke="currentColor" stroke-width="2">
    <path d="M18 13v6a2 2 0 0 1-2 2H5a2 2 0 0 1-2-2V8a2 2 0 0 1 2-2h6"/>
    <polyline points="15,3 21,3 21,9"/>
    <line x1="10" y1="14" x2="21" y2="3"/>
  </symbol>
  
  <!-- Icône Étoile -->
  <symbol id="icone-etoile" viewBox="0 0 24 24" fill="none" stroke="currentColor" stroke-width="2">
    <polygon points="12,2 15.09,8.26 22,9.27 17,14.14 18.18,21.02 12,17.77 5.82,21.02 7,14.14 2,9.27 8.91,8.26 12,2"/>
  </symbol>
  
  <!-- Icône Calendrier -->
  <symbol id="icone-calendrier" viewBox="0 0 24 24" fill="none" stroke="currentColor" stroke-width="2">
    <rect x="3" y="4" width="18" height="18" rx="2" ry="2"/>
    <line x1="16" y1="2" x2="16" y2="6"/>
    <line x1="8" y1="2" x2="8" y2="6"/>
    <line x1="3" y1="10" x2="21" y2="10"/>
  </symbol>
  
  <!-- Icône Horloge -->
  <symbol id="icone-horloge" viewBox="0 0 24 24" fill="none" stroke="currentColor" stroke-width="2">
    <circle cx="12" cy="12" r="10"/>
    <polyline points="12,6 12,12 16,14"/>
  </symbol>
  
  <!-- Icône Utilisateur -->
  <symbol id="icone-utilisateur" viewBox="0 0 24 24" fill="none" stroke="currentColor" stroke-width="2">
    <path d="M20 21v-2a4 4 0 0 0-4-4H8a4 4 0 0 0-4 4v2"/>
    <circle cx="12" cy="7" r="4"/>
  </symbol>
  
  <!-- Icône Paramètres -->
  <symbol id="icone-parametres" viewBox="0 0 24 24" fill="none" stroke="currentColor" stroke-width="2">
    <circle cx="12" cy="12" r="3"/>
    <path d="M12 1v6m0 6v6m11-7h-6m-6 0H1"/>
  </symbol>
  
</svg>
